# xmcd
#
# Track frame offsets:
#	150
#	12698
#	22509
#	29692
#	40346
#	44432
#	57868
#	67181
#	74455
#	79766
#
# Disc length: 1197 seconds
#
# Revision: 0
# Processed by: cddbd v1.5.2PL0 Copyright (c) Steve Scherf et al.
# Submitted via: audiograbber 1.83.01
#
DISCID=8804ab0a
DTITLE=Swift, Richard - Richard Swift as Onasis [CD1]
DYEAR=2008
DGENRE=Rock
TTITLE0=Knee-High Boogie Blues
TTITLE1=SM60
TTITLE2=The German (Something Came Up)
TTITLE3=Greaseball Blues
TTITLE4=Opt I
TTITLE5=Du(m)b I
TTITLE6=Sign Language
TTITLE7=Even More Sign Language
TTITLE8=Opt II
TTITLE9=Field Painting
EXTD=
EXTT0=
EXTT1=
EXTT2=
EXTT3=
EXTT4=
EXTT5=
EXTT6=
EXTT7=
EXTT8=
EXTT9=
PLAYORDER=
